<svg width="48" height="48" viewBox="0 0 48 48" fill="none" xmlns="http://www.w3.org/2000/svg">
<path d="M40.9428 7.05971C38.4257 4.52311 35.3703 2.58361 32.0021 1.38443C28.6339 0.185245 25.039 -0.242987 21.4829 0.131357C10.4617 1.24109 1.39241 10.179 0.161156 21.1864C-1.49053 35.7329 9.77097 48 23.9755 48C28.5104 48 32.9523 46.7149 36.785 44.2939C40.6178 41.8729 43.684 38.4155 45.6276 34.3232C46.5886 32.3137 45.1471 30.0043 42.9248 30.0043C41.8137 30.0043 40.7626 30.6041 40.2821 31.5939C38.5386 35.3401 35.5564 38.3722 31.8373 40.1803C28.1181 41.9884 23.889 42.462 19.8613 41.5215C13.1945 40.0519 7.81898 34.6232 6.40753 27.9648C5.81422 25.3322 5.82109 22.6 6.42764 19.9704C7.03418 17.3409 8.22488 14.8811 9.91166 12.7731C11.5984 10.6651 13.7382 8.96286 16.1725 7.79219C18.6069 6.62153 21.2736 6.01244 23.9755 6.00996C28.9606 6.00996 33.4051 8.07947 36.6484 11.3487L32.1138 15.8776C30.2218 17.7672 31.5432 21.0064 34.2159 21.0064H44.9969C46.6486 21.0064 48 19.6567 48 18.0071V7.23967C48 4.5703 44.7567 3.22062 42.8648 5.11018L40.9428 7.05971V7.05971Z" fill="url(#paint0_linear_314_2)"/>
<defs>
<linearGradient id="paint0_linear_314_2" x1="0" y1="0" x2="48" y2="48" gradientUnits="userSpaceOnUse">
<stop offset="0.243042" stop-color="#BB38F8"/>
<stop offset="1" stop-color="#4738F8"/>
</linearGradient>
</defs>
</svg>
