<svg width="32" height="32" viewBox="0 0 32 32" fill="none" xmlns="http://www.w3.org/2000/svg">
<path d="M25.5968 20.8001V27.2C25.5968 28.08 24.8769 28.8 23.997 28.8H4.7994C3.91951 28.8 3.1996 28.08 3.1996 27.2V8.00018C3.1996 7.12018 3.91951 6.40019 4.7994 6.40019H9.6308C10.5107 6.40019 11.2306 5.68019 11.2306 4.8002C11.2306 3.92021 10.5107 3.20021 9.6308 3.20021H3.1996C1.43982 3.20021 0 4.6402 0 6.40019V28.8C0 30.56 1.43982 32 3.1996 32H25.5968C27.3566 32 28.7964 30.56 28.7964 28.8V20.8001C28.7964 19.9201 28.0765 19.2001 27.1966 19.2001C26.3167 19.2001 25.5968 19.9201 25.5968 20.8001ZM21.5973 25.6H7.2311C6.55918 25.6 6.19123 24.8321 6.60717 24.3041L9.39083 20.7361C9.46457 20.6417 9.55858 20.565 9.6659 20.5118C9.77323 20.4586 9.89113 20.4302 10.0109 20.4287C10.1307 20.4271 10.2493 20.4525 10.3579 20.503C10.4666 20.5534 10.5625 20.6276 10.6387 20.7201L13.1344 23.7281L16.8939 18.8961C17.2139 18.4801 17.8538 18.4801 18.1577 18.9121L22.2372 24.3361C22.6372 24.8481 22.2532 25.6 21.5973 25.6ZM27.6765 11.0242C28.4444 9.79216 28.8764 8.35217 28.7804 6.76818C28.5724 3.32821 25.8368 0.41623 22.4292 0.0482329C21.4204 -0.0691419 20.3981 0.028292 19.4296 0.334133C18.4612 0.639974 17.5683 1.1473 16.8098 1.82278C16.0513 2.49826 15.4443 3.3266 15.0287 4.25339C14.613 5.18018 14.3982 6.18444 14.3982 7.20018C14.3982 11.1842 17.6138 14.4001 21.5813 14.4001C22.9891 14.4001 24.301 13.9841 25.4048 13.2801L29.2603 17.1361C29.8843 17.7601 30.9081 17.7601 31.5321 17.1361C32.156 16.5121 32.156 15.4881 31.5321 14.8641L27.6765 11.0242ZM21.5973 11.2002C20.5366 11.2002 19.5193 10.7787 18.7692 10.0286C18.0192 9.27845 17.5978 8.26104 17.5978 7.20018C17.5978 6.13932 18.0192 5.12191 18.7692 4.37177C19.5193 3.62163 20.5366 3.20021 21.5973 3.20021C22.658 3.20021 23.6753 3.62163 24.4254 4.37177C25.1754 5.12191 25.5968 6.13932 25.5968 7.20018C25.5968 8.26104 25.1754 9.27845 24.4254 10.0286C23.6753 10.7787 22.658 11.2002 21.5973 11.2002Z" fill="white"/>
</svg>
