<svg width="618" height="136" viewBox="0 0 618 136" fill="none" xmlns="http://www.w3.org/2000/svg">
<path d="M0.911133 134.001V2.60078H27.9111V109.701H81.0111V134.001H0.911133Z" fill="white"/>
<path d="M142.141 135.801C128.941 135.801 118.441 132.081 110.641 124.641C102.841 117.201 98.9408 107.121 98.9408 94.4008V42.2008C98.9408 29.3608 102.841 19.2808 110.641 11.9608C118.441 4.52078 128.941 0.800781 142.141 0.800781C155.341 0.800781 165.841 4.52078 173.641 11.9608C181.441 19.2808 185.341 29.3608 185.341 42.2008V94.4008C185.341 107.121 181.441 117.201 173.641 124.641C165.841 132.081 155.341 135.801 142.141 135.801ZM142.141 112.401C147.541 112.401 151.561 111.021 154.201 108.261C156.961 105.381 158.341 101.361 158.341 96.2008V40.4008C158.341 35.1208 157.021 31.1008 154.381 28.3408C151.741 25.5808 147.661 24.2008 142.141 24.2008C136.621 24.2008 132.541 25.5808 129.901 28.3408C127.261 31.1008 125.941 35.1208 125.941 40.4008V96.2008C125.941 101.361 127.261 105.381 129.901 108.261C132.661 111.021 136.741 112.401 142.141 112.401Z" fill="white"/>
<path d="M208.671 134.001V2.60078H293.271V27.8008H235.311V56.9608H288.591V82.1608H235.671V134.001H208.671Z" fill="white"/>
<path d="M358 135.801C344.8 135.801 334.3 132.081 326.5 124.641C318.7 117.201 314.8 107.121 314.8 94.4008V42.2008C314.8 29.3608 318.7 19.2808 326.5 11.9608C334.3 4.52078 344.8 0.800781 358 0.800781C371.2 0.800781 381.7 4.52078 389.5 11.9608C397.3 19.2808 401.2 29.3608 401.2 42.2008V94.4008C401.2 107.121 397.3 117.201 389.5 124.641C381.7 132.081 371.2 135.801 358 135.801ZM358 112.401C363.4 112.401 367.42 111.021 370.06 108.261C372.82 105.381 374.2 101.361 374.2 96.2008V40.4008C374.2 35.1208 372.88 31.1008 370.24 28.3408C367.6 25.5808 363.52 24.2008 358 24.2008C352.48 24.2008 348.4 25.5808 345.76 28.3408C343.12 31.1008 341.8 35.1208 341.8 40.4008V96.2008C341.8 101.361 343.12 105.381 345.76 108.261C348.52 111.021 352.6 112.401 358 112.401Z" fill="white"/>
<path d="M423.27 134.001V2.60078H465.93C475.05 2.60078 482.97 4.34078 489.69 7.82078C496.53 11.3008 501.81 16.2208 505.53 22.5808C509.37 28.8208 511.29 36.2008 511.29 44.7208V91.7008C511.29 100.101 509.37 107.481 505.53 113.841C501.81 120.201 496.53 125.181 489.69 128.781C482.97 132.261 475.05 134.001 465.93 134.001H423.27ZM450.27 109.701H465.93C471.33 109.701 475.71 108.021 479.07 104.661C482.55 101.301 484.29 96.9808 484.29 91.7008V44.7208C484.29 39.4408 482.55 35.1808 479.07 31.9408C475.71 28.5808 471.33 26.9008 465.93 26.9008H450.27V109.701Z" fill="white"/>
<path d="M573.86 135.801C560.66 135.801 550.16 132.081 542.36 124.641C534.56 117.201 530.66 107.121 530.66 94.4008V42.2008C530.66 29.3608 534.56 19.2808 542.36 11.9608C550.16 4.52078 560.66 0.800781 573.86 0.800781C587.06 0.800781 597.56 4.52078 605.36 11.9608C613.16 19.2808 617.06 29.3608 617.06 42.2008V94.4008C617.06 107.121 613.16 117.201 605.36 124.641C597.56 132.081 587.06 135.801 573.86 135.801ZM573.86 112.401C579.26 112.401 583.28 111.021 585.92 108.261C588.68 105.381 590.06 101.361 590.06 96.2008V40.4008C590.06 35.1208 588.74 31.1008 586.1 28.3408C583.46 25.5808 579.38 24.2008 573.86 24.2008C568.34 24.2008 564.26 25.5808 561.62 28.3408C558.98 31.1008 557.66 35.1208 557.66 40.4008V96.2008C557.66 101.361 558.98 105.381 561.62 108.261C564.38 111.021 568.46 112.401 573.86 112.401Z" fill="white"/>
</svg>
