<svg width="242" height="56" viewBox="0 0 242 56" fill="none" xmlns="http://www.w3.org/2000/svg">
<path d="M79.0065 40.36C77.4705 40.36 76.0065 40.12 74.6145 39.64C73.2225 39.16 72.0105 38.488 70.9785 37.624C69.9465 36.76 69.1905 35.764 68.7105 34.636C68.4705 34.132 68.4705 33.664 68.7105 33.232C68.9745 32.8 69.4065 32.524 70.0065 32.404C70.4385 32.308 70.8585 32.38 71.2665 32.62C71.6985 32.836 72.0225 33.172 72.2385 33.628C72.5265 34.228 72.9945 34.78 73.6425 35.284C74.3145 35.788 75.1185 36.196 76.0545 36.508C76.9905 36.82 77.9745 36.976 79.0065 36.976C80.1585 36.976 81.2145 36.796 82.1745 36.436C83.1585 36.076 83.9505 35.56 84.5505 34.888C85.1505 34.192 85.4505 33.34 85.4505 32.332C85.4505 31.06 84.9465 29.92 83.9385 28.912C82.9545 27.904 81.3225 27.28 79.0425 27.04C76.0665 26.752 73.7265 25.876 72.0225 24.412C70.3185 22.948 69.4665 21.136 69.4665 18.976C69.4665 17.392 69.9105 16.048 70.7985 14.944C71.6865 13.84 72.8865 13 74.3985 12.424C75.9345 11.848 77.6385 11.56 79.5105 11.56C80.9745 11.56 82.2465 11.764 83.3265 12.172C84.4305 12.58 85.3905 13.144 86.2065 13.864C87.0225 14.584 87.7305 15.436 88.3305 16.42C88.6665 16.948 88.7985 17.452 88.7265 17.932C88.6785 18.388 88.4505 18.748 88.0425 19.012C87.5865 19.3 87.0945 19.36 86.5665 19.192C86.0385 19.024 85.6425 18.712 85.3785 18.256C84.9945 17.56 84.5265 16.972 83.9745 16.492C83.4225 16.012 82.7745 15.64 82.0305 15.376C81.2865 15.088 80.4105 14.944 79.4025 14.944C77.6265 14.92 76.1385 15.256 74.9385 15.952C73.7385 16.624 73.1385 17.668 73.1385 19.084C73.1385 19.804 73.3185 20.5 73.6785 21.172C74.0625 21.82 74.7465 22.384 75.7305 22.864C76.7385 23.344 78.1785 23.68 80.0505 23.872C82.9065 24.16 85.1265 25.036 86.7105 26.5C88.3185 27.94 89.1225 29.848 89.1225 32.224C89.1225 33.592 88.8345 34.78 88.2585 35.788C87.7065 36.796 86.9505 37.648 85.9905 38.344C85.0545 39.016 83.9745 39.52 82.7505 39.856C81.5505 40.192 80.3025 40.36 79.0065 40.36ZM96.3397 48.424C95.8117 48.424 95.3677 48.244 95.0077 47.884C94.6717 47.548 94.5037 47.116 94.5037 46.588V30.172C94.5277 28.276 94.9717 26.572 95.8357 25.06C96.6997 23.548 97.8757 22.36 99.3637 21.496C100.852 20.608 102.532 20.164 104.404 20.164C106.3 20.164 107.992 20.608 109.48 21.496C110.968 22.36 112.144 23.548 113.008 25.06C113.896 26.572 114.34 28.276 114.34 30.172C114.34 32.068 113.932 33.772 113.116 35.284C112.324 36.772 111.232 37.96 109.84 38.848C108.448 39.712 106.876 40.144 105.124 40.144C103.708 40.144 102.4 39.856 101.2 39.28C100.024 38.68 99.0157 37.876 98.1757 36.868V46.588C98.1757 47.116 98.0077 47.548 97.6717 47.884C97.3357 48.244 96.8917 48.424 96.3397 48.424ZM104.404 36.904C105.628 36.904 106.72 36.616 107.68 36.04C108.64 35.44 109.396 34.636 109.948 33.628C110.524 32.596 110.812 31.444 110.812 30.172C110.812 28.876 110.524 27.724 109.948 26.716C109.396 25.684 108.64 24.88 107.68 24.304C106.72 23.704 105.628 23.404 104.404 23.404C103.204 23.404 102.112 23.704 101.128 24.304C100.168 24.88 99.4117 25.684 98.8597 26.716C98.3077 27.724 98.0317 28.876 98.0317 30.172C98.0317 31.444 98.3077 32.596 98.8597 33.628C99.4117 34.636 100.168 35.44 101.128 36.04C102.112 36.616 103.204 36.904 104.404 36.904ZM122.012 40C121.484 40 121.04 39.832 120.68 39.496C120.344 39.136 120.176 38.692 120.176 38.164V22.144C120.176 21.592 120.344 21.148 120.68 20.812C121.04 20.476 121.484 20.308 122.012 20.308C122.564 20.308 123.008 20.476 123.344 20.812C123.68 21.148 123.848 21.592 123.848 22.144V38.164C123.848 38.692 123.68 39.136 123.344 39.496C123.008 39.832 122.564 40 122.012 40ZM122.012 17.104C121.364 17.104 120.8 16.876 120.32 16.42C119.864 15.94 119.636 15.376 119.636 14.728C119.636 14.08 119.864 13.528 120.32 13.072C120.8 12.592 121.364 12.352 122.012 12.352C122.66 12.352 123.212 12.592 123.668 13.072C124.148 13.528 124.388 14.08 124.388 14.728C124.388 15.376 124.148 15.94 123.668 16.42C123.212 16.876 122.66 17.104 122.012 17.104ZM139.607 40.144C137.687 40.144 135.971 39.712 134.459 38.848C132.971 37.96 131.795 36.772 130.931 35.284C130.091 33.772 129.671 32.068 129.671 30.172C129.671 28.228 130.091 26.5 130.931 24.988C131.771 23.476 132.923 22.3 134.387 21.46C135.851 20.596 137.531 20.164 139.427 20.164C140.843 20.164 142.139 20.44 143.315 20.992C144.491 21.52 145.547 22.324 146.483 23.404C146.819 23.788 146.939 24.184 146.843 24.592C146.747 25 146.483 25.36 146.051 25.672C145.715 25.912 145.343 25.996 144.935 25.924C144.527 25.828 144.155 25.612 143.819 25.276C142.643 24.028 141.179 23.404 139.427 23.404C138.203 23.404 137.123 23.692 136.187 24.268C135.251 24.82 134.519 25.6 133.991 26.608C133.463 27.616 133.199 28.804 133.199 30.172C133.199 31.468 133.463 32.62 133.991 33.628C134.543 34.636 135.299 35.44 136.259 36.04C137.219 36.616 138.335 36.904 139.607 36.904C140.447 36.904 141.179 36.808 141.803 36.616C142.451 36.4 143.039 36.076 143.567 35.644C143.951 35.332 144.347 35.164 144.755 35.14C145.163 35.092 145.523 35.2 145.835 35.464C146.243 35.8 146.471 36.184 146.519 36.616C146.567 37.024 146.423 37.396 146.087 37.732C144.359 39.34 142.199 40.144 139.607 40.144ZM160.509 40.144C158.757 40.144 157.185 39.712 155.793 38.848C154.401 37.96 153.297 36.772 152.481 35.284C151.689 33.772 151.293 32.068 151.293 30.172C151.293 28.276 151.725 26.572 152.589 25.06C153.477 23.548 154.665 22.36 156.153 21.496C157.665 20.608 159.357 20.164 161.229 20.164C163.101 20.164 164.781 20.608 166.269 21.496C167.757 22.36 168.933 23.548 169.797 25.06C170.685 26.572 171.129 28.276 171.129 30.172H169.725C169.725 32.068 169.317 33.772 168.501 35.284C167.709 36.772 166.617 37.96 165.225 38.848C163.833 39.712 162.261 40.144 160.509 40.144ZM161.229 36.904C162.453 36.904 163.545 36.616 164.505 36.04C165.465 35.44 166.221 34.636 166.773 33.628C167.325 32.596 167.601 31.444 167.601 30.172C167.601 28.876 167.325 27.724 166.773 26.716C166.221 25.684 165.465 24.88 164.505 24.304C163.545 23.704 162.453 23.404 161.229 23.404C160.029 23.404 158.937 23.704 157.953 24.304C156.993 24.88 156.225 25.684 155.649 26.716C155.097 27.724 154.821 28.876 154.821 30.172C154.821 31.444 155.097 32.596 155.649 33.628C156.225 34.636 156.993 35.44 157.953 36.04C158.937 36.616 160.029 36.904 161.229 36.904ZM169.293 40.036C168.765 40.036 168.321 39.868 167.961 39.532C167.625 39.172 167.457 38.728 167.457 38.2V32.692L168.141 28.876L171.129 30.172V38.2C171.129 38.728 170.949 39.172 170.589 39.532C170.253 39.868 169.821 40.036 169.293 40.036Z" fill="url(#paint0_linear_331_4)"/>
<path d="M178.034 40C177.746 40 177.494 39.904 177.278 39.712C177.062 39.496 176.954 39.232 176.954 38.92V12.964C176.954 12.652 177.062 12.4 177.278 12.208C177.494 11.992 177.746 11.884 178.034 11.884C178.346 11.884 178.598 11.992 178.79 12.208C179.006 12.4 179.114 12.652 179.114 12.964V38.056H193.91C194.246 38.056 194.51 38.152 194.702 38.344C194.894 38.512 194.99 38.74 194.99 39.028C194.99 39.316 194.894 39.556 194.702 39.748C194.51 39.916 194.246 40 193.91 40H178.034ZM208.129 40.216C206.209 40.216 204.481 39.784 202.945 38.92C201.433 38.032 200.233 36.832 199.345 35.32C198.481 33.784 198.049 32.068 198.049 30.172C198.049 28.252 198.481 26.536 199.345 25.024C200.233 23.488 201.433 22.288 202.945 21.424C204.481 20.536 206.209 20.092 208.129 20.092C210.049 20.092 211.765 20.536 213.277 21.424C214.789 22.288 215.977 23.488 216.841 25.024C217.729 26.536 218.173 28.252 218.173 30.172C218.173 32.068 217.729 33.784 216.841 35.32C215.977 36.832 214.789 38.032 213.277 38.92C211.765 39.784 210.049 40.216 208.129 40.216ZM208.129 38.2C209.641 38.2 210.985 37.852 212.161 37.156C213.361 36.436 214.297 35.476 214.969 34.276C215.665 33.052 216.013 31.672 216.013 30.136C216.013 28.624 215.665 27.268 214.969 26.068C214.297 24.844 213.361 23.884 212.161 23.188C210.985 22.468 209.641 22.108 208.129 22.108C206.641 22.108 205.297 22.468 204.097 23.188C202.897 23.884 201.949 24.844 201.253 26.068C200.557 27.268 200.209 28.636 200.209 30.172C200.209 31.684 200.557 33.052 201.253 34.276C201.949 35.476 202.897 36.436 204.097 37.156C205.297 37.852 206.641 38.2 208.129 38.2ZM226.262 40C225.95 40 225.686 39.904 225.47 39.712C225.278 39.496 225.182 39.232 225.182 38.92V19.912C225.182 18.448 225.41 17.116 225.866 15.916C226.346 14.692 227.114 13.72 228.17 13C229.25 12.256 230.702 11.884 232.526 11.884C233.366 11.884 234.218 11.968 235.082 12.136C235.946 12.304 236.666 12.568 237.242 12.928C237.842 13.288 238.142 13.756 238.142 14.332C238.142 15.34 237.602 15.844 236.522 15.844C236.162 15.844 235.826 15.748 235.514 15.556C235.226 15.34 234.926 15.1 234.614 14.836C234.302 14.572 233.942 14.344 233.534 14.152C233.15 13.936 232.682 13.828 232.13 13.828C231.122 13.828 230.258 14.032 229.538 14.44C228.842 14.848 228.302 15.496 227.918 16.384C227.558 17.272 227.378 18.448 227.378 19.912V38.92C227.378 39.232 227.27 39.496 227.054 39.712C226.838 39.904 226.574 40 226.262 40ZM222.374 22.972C222.086 22.972 221.846 22.888 221.654 22.72C221.486 22.528 221.402 22.288 221.402 22C221.402 21.712 221.486 21.484 221.654 21.316C221.846 21.124 222.086 21.028 222.374 21.028H232.13C232.418 21.028 232.646 21.124 232.814 21.316C233.006 21.484 233.102 21.712 233.102 22C233.102 22.288 233.006 22.528 232.814 22.72C232.646 22.888 232.418 22.972 232.13 22.972H222.374ZM236.81 40C236.498 40 236.234 39.904 236.018 39.712C235.826 39.496 235.73 39.232 235.73 38.92V21.388C235.73 21.052 235.826 20.788 236.018 20.596C236.234 20.404 236.498 20.308 236.81 20.308C237.146 20.308 237.41 20.404 237.602 20.596C237.794 20.788 237.89 21.052 237.89 21.388V38.92C237.89 39.232 237.794 39.496 237.602 39.712C237.41 39.904 237.146 40 236.81 40Z" fill="white"/>
<path d="M32.2694 28.0196C28.4898 28.3635 28.3372 28.7465 28.0286 34.5058C28.027 34.5304 27.9731 34.5304 27.9714 34.5058C27.6628 28.7465 27.261 28.3646 23.7306 28.0196C23.6963 28.0174 23.6963 27.9826 23.7306 27.9804C27.2627 27.6365 27.6628 27.2535 27.9714 21.4942C27.9731 21.4696 28.027 21.4696 28.0286 21.4942C28.3372 27.2535 28.4914 27.6354 32.2694 27.9804C32.3037 27.9826 32.3037 28.0174 32.2694 28.0196Z" fill="white"/>
<path d="M4.0645 27.9568C4.0645 14.7287 14.8207 3.96983 28.0408 3.96983C32.2967 3.96983 36.2935 5.09006 39.7653 7.04347L41.6646 3.57074C37.6238 1.29609 33.0784 0.0685918 28.4421 0H27.9872C12.6228 0.0233382 0.167993 12.3856 0 27.7304V27.9988C0.00333116 31.8125 0.786421 35.5851 2.30113 39.0849C3.81584 42.5846 6.03016 45.7375 8.80797 48.3497L11.5729 45.3625C9.20132 43.1258 7.31194 40.4279 6.02076 37.4343C4.72958 34.4408 4.06387 31.2148 4.0645 27.9545V27.9568ZM47.5094 7.93965L44.8168 10.8336C47.0987 13.0629 48.9117 15.7263 50.1491 18.667C51.3864 21.6077 52.0232 24.7663 52.0218 27.9568C52.0218 41.1802 41.2656 51.9392 28.0455 51.9392C23.8853 51.9392 19.9725 50.8749 16.5613 49.0032L14.5687 52.5553C18.6839 54.8167 23.3035 56.0016 27.9988 56C43.4589 56 56 43.4604 56 27.9942C55.9987 24.2534 55.2468 20.5508 53.7887 17.106C52.3307 13.6612 50.1962 10.5442 47.5117 7.93965H47.5094ZM4.58014 27.9568C4.58002 31.1451 5.23104 34.2997 6.49327 37.2274C7.7555 40.155 9.60233 42.7938 11.9205 44.982L14.6737 42.0041C12.7673 40.195 11.2491 38.0165 10.2117 35.6015C9.17439 33.1864 8.6396 30.5854 8.63997 27.9568C8.63997 17.2539 17.3429 8.55111 28.0408 8.55111C31.501 8.55111 34.7489 9.46364 37.5651 11.06L39.5134 7.49856C36.0131 5.52145 32.0606 4.48502 28.0408 4.49027C15.1077 4.4856 4.58014 15.0158 4.58014 27.9568ZM47.4417 27.9568C47.4417 38.6597 38.7387 47.3625 28.0408 47.3625C24.8118 47.3664 21.6333 46.56 18.7965 45.017L16.8086 48.5551C20.2521 50.4406 24.1152 51.4271 28.0408 51.4234C40.974 51.4234 51.5015 40.8932 51.5015 27.9568C51.5015 21.4035 48.802 15.4779 44.4621 11.2163L41.7019 14.1896C43.5227 15.9897 44.9677 18.1337 45.953 20.4971C46.9383 22.8605 47.4444 25.3962 47.4417 27.9568ZM42.8965 27.9568C42.8928 31.8952 41.3269 35.6712 38.5425 38.4558C35.7582 41.2404 31.9829 42.8062 28.0455 42.8093C25.5975 42.8117 23.1873 42.2054 21.0318 41.0449L19.0532 44.5619C21.8125 46.0631 24.9045 46.8471 28.0455 46.8421C38.4611 46.8421 46.933 38.3703 46.933 27.9522C46.9347 25.4621 46.4427 22.9965 45.4855 20.6979C44.5284 18.3992 43.125 16.3133 41.3566 14.5607L38.6057 17.5177C41.3554 20.2959 42.8974 24.0475 42.8965 27.9568ZM9.16028 27.9568C9.16028 33.3269 11.4165 38.1836 15.0284 41.6283L17.7653 38.6644C16.3191 37.2814 15.1682 35.6195 14.3822 33.7791C13.5962 31.9388 13.1913 29.9581 13.1921 27.9568C13.1958 24.0189 14.7614 20.2432 17.5453 17.4587C20.3292 14.6741 24.1038 13.1081 28.0408 13.1044C30.6142 13.1026 33.1432 13.7744 35.3765 15.0531L37.3131 11.5127C34.4858 9.90921 31.291 9.0665 28.0408 9.06689C17.6323 9.06689 9.16028 17.5387 9.16028 27.9568ZM38.3957 27.9568C38.3951 30.7034 37.3039 33.3373 35.362 35.2792C33.4202 37.2211 30.7867 38.312 28.0408 38.312C26.3652 38.3126 24.7147 37.9049 23.232 37.1241L21.2838 40.5968C23.3613 41.7122 25.6829 42.2952 28.0408 42.2935C31.8411 42.2898 35.4846 40.7781 38.1717 38.0903C40.8589 35.4024 42.3702 31.758 42.3739 27.9568C42.3763 24.1928 40.8939 20.5799 38.2487 17.9027L35.5375 20.82C37.3712 22.7434 38.3939 25.2992 38.3934 27.9568H38.3957ZM13.7078 27.9568C13.7065 29.8866 14.0962 31.7966 14.8533 33.5715C15.6104 35.3465 16.7193 36.9495 18.1129 38.284L20.8125 35.3667L20.8451 35.3994C19.8446 34.4364 19.0489 33.2812 18.5056 32.0031C17.9623 30.725 17.6827 29.3503 17.6836 27.9615C17.6833 26.6015 17.9509 25.2549 18.471 23.9984C18.9912 22.7419 19.7537 21.6002 20.7151 20.6386C21.6765 19.677 22.8179 18.9142 24.074 18.3939C25.3302 17.8737 26.6766 17.606 28.0362 17.6063C29.8535 17.6054 31.6386 18.087 33.2089 19.002L35.1222 15.5059C32.9651 14.2704 30.5219 13.6218 28.0362 13.6248C20.1405 13.6132 13.7078 20.0498 13.7078 27.9568ZM20.1008 27.9568C20.1008 25.852 20.9367 23.8334 22.4247 22.3451C23.9126 20.8568 25.9307 20.0207 28.035 20.0207C30.1393 20.0207 32.1574 20.8568 33.6453 22.3451C35.1332 23.8334 35.9692 25.852 35.9692 27.9568C35.9692 30.0613 35.1334 32.0796 33.6456 33.5677C32.1579 35.0558 30.1401 35.8918 28.0362 35.8918C25.9322 35.8918 23.9144 35.0558 22.4267 33.5677C20.939 32.0796 20.1032 30.0613 20.1032 27.9568H20.1008ZM20.4485 27.9568C20.451 29.9689 21.2512 31.898 22.6736 33.3207C24.096 34.7435 26.0245 35.5439 28.0362 35.5464C30.0488 35.5458 31.9789 34.7461 33.4024 33.3231C34.826 31.9 35.6267 29.9699 35.6285 27.9568C35.6285 26.9598 35.4322 25.9726 35.0508 25.0515C34.6693 24.1304 34.1102 23.2935 33.4055 22.5885C32.7007 21.8836 31.8639 21.3243 30.9431 20.9428C30.0222 20.5613 29.0352 20.3649 28.0385 20.3649C27.0418 20.3649 26.0548 20.5613 25.1339 20.9428C24.2131 21.3243 23.3763 21.8836 22.6715 22.5885C21.9667 23.2935 21.4077 24.1304 21.0262 25.0515C20.6448 25.9726 20.4485 26.9598 20.4485 27.9568Z" fill="url(#paint1_linear_331_4)"/>
<path d="M31.8602 51.5417C31.8602 52.2924 31.2516 52.901 30.501 52.901C29.7503 52.901 29.1417 52.2924 29.1417 51.5417C29.1417 50.7911 29.7503 50.1825 30.501 50.1825C31.2516 50.1825 31.8602 50.7911 31.8602 51.5417Z" fill="white"/>
<path d="M52.8466 24.1942C52.8466 24.9749 52.2624 25.6078 51.5417 25.6078C50.8211 25.6078 50.2369 24.9749 50.2369 24.1942C50.2369 23.4135 50.8211 22.7806 51.5417 22.7806C52.2624 22.7806 52.8466 23.4135 52.8466 24.1942Z" fill="white"/>
<path d="M25.1184 4.45825C25.1184 5.20893 24.4856 5.81748 23.7049 5.81748C22.9241 5.81748 22.2913 5.20893 22.2913 4.45825C22.2913 3.70757 22.9241 3.09903 23.7049 3.09903C24.4856 3.09903 25.1184 3.70757 25.1184 4.45825Z" fill="white"/>
<path d="M5.76311 30.501C5.76311 31.2216 5.1789 31.8058 4.45825 31.8058C3.7376 31.8058 3.1534 31.2216 3.1534 30.501C3.1534 29.7803 3.7376 29.1961 4.45825 29.1961C5.1789 29.1961 5.76311 29.7803 5.76311 30.501Z" fill="white"/>
<path d="M46.2136 18.3223C46.2136 19.043 45.605 19.6272 44.8544 19.6272C44.1037 19.6272 43.4951 19.043 43.4951 18.3223C43.4951 17.6017 44.1037 17.0175 44.8544 17.0175C45.605 17.0175 46.2136 17.6017 46.2136 18.3223Z" fill="white"/>
<path d="M39.0369 44.365C39.0369 45.1157 38.4283 45.7243 37.6777 45.7243C36.927 45.7243 36.3184 45.1157 36.3184 44.365C36.3184 43.6144 36.927 43.0058 37.6777 43.0058C38.4283 43.0058 39.0369 43.6144 39.0369 44.365Z" fill="white"/>
<path d="M46.6485 36.2641C46.6485 36.9847 46.0157 37.5689 45.235 37.5689C44.4542 37.5689 43.8214 36.9847 43.8214 36.2641C43.8214 35.5434 44.4542 34.9592 45.235 34.9592C46.0157 34.9592 46.6485 35.5434 46.6485 36.2641Z" fill="white"/>
<path d="M23.7049 46.1049C23.7049 46.8555 23.1207 47.4641 22.4 47.4641C21.6793 47.4641 21.0951 46.8555 21.0951 46.1049C21.0951 45.3542 21.6793 44.7456 22.4 44.7456C23.1207 44.7456 23.7049 45.3542 23.7049 46.1049Z" fill="white"/>
<path d="M33.7087 8.97087C33.7087 9.69152 33.0759 10.2757 32.2951 10.2757C31.5144 10.2757 30.8816 9.69152 30.8816 8.97087C30.8816 8.25022 31.5144 7.66602 32.2951 7.66602C33.0759 7.66602 33.7087 8.25022 33.7087 8.97087Z" fill="white"/>
<path d="M12.1786 36.2641C12.1786 36.9847 11.5458 37.5689 10.765 37.5689C9.98434 37.5689 9.35146 36.9847 9.35146 36.2641C9.35146 35.5434 9.98434 34.9592 10.765 34.9592C11.5458 34.9592 12.1786 35.5434 12.1786 36.2641Z" fill="white"/>
<path d="M10.765 22.835C10.765 23.5856 10.1565 24.1942 9.40583 24.1942C8.65515 24.1942 8.0466 23.5856 8.0466 22.835C8.0466 22.0843 8.65515 21.4757 9.40583 21.4757C10.1565 21.4757 10.765 22.0843 10.765 22.835Z" fill="white"/>
<path d="M20.1165 11.1456C20.1165 11.8663 19.5323 12.4505 18.8117 12.4505C18.091 12.4505 17.5068 11.8663 17.5068 11.1456C17.5068 10.425 18.091 9.84078 18.8117 9.84078C19.5323 9.84078 20.1165 10.425 20.1165 11.1456Z" fill="white"/>
<path d="M43.4951 24.1942C43.4951 24.9749 42.8866 25.6078 42.1359 25.6078C41.3852 25.6078 40.7767 24.9749 40.7767 24.1942C40.7767 23.4135 41.3852 22.7806 42.1359 22.7806C42.8866 22.7806 43.4951 23.4135 43.4951 24.1942Z" fill="white"/>
<path d="M14.7883 27.7825C14.7883 28.5632 14.2041 29.1961 13.4835 29.1961C12.7628 29.1961 12.1786 28.5632 12.1786 27.7825C12.1786 27.0018 12.7628 26.3689 13.4835 26.3689C14.2041 26.3689 14.7883 27.0018 14.7883 27.7825Z" fill="white"/>
<defs>
<linearGradient id="paint0_linear_331_4" x1="66" y1="8" x2="156.982" y2="38.8497" gradientUnits="userSpaceOnUse">
<stop stop-color="#990DDA"/>
<stop offset="0.322917" stop-color="#6432EC"/>
<stop offset="0.6875" stop-color="#3B4EFA"/>
<stop offset="1" stop-color="#289DFA"/>
</linearGradient>
<linearGradient id="paint1_linear_331_4" x1="0.000438603" y1="-0.0498763" x2="56.0004" y2="55.9501" gradientUnits="userSpaceOnUse">
<stop stop-color="#D611B2"/>
<stop offset="0.223958" stop-color="#7D0BEC"/>
<stop offset="0.739583" stop-color="#2A5EFD"/>
<stop offset="1" stop-color="#23FFF5"/>
</linearGradient>
</defs>
</svg>
