<svg width="15" height="9" viewBox="0 0 15 9" fill="none" xmlns="http://www.w3.org/2000/svg"><path d="M14.7036 7.99018C14.5059 8.16339 14.2719 8.25 14.0016 8.25C13.7318 8.25 13.498 8.16339 13.3004 7.99018L7.50988 2.91513L1.6996 8.00751C1.51515 8.16917 1.28458 8.25 1.00791 8.25C0.731225 8.25 0.494071 8.16339 0.296443 7.99018C0.0988142 7.81697 0 7.61189 0 7.37494C0 7.13845 0.0988142 6.9336 0.296443 6.76039L6.95652 0.940531C7.03557 0.871247 7.12121 0.822056 7.21344 0.792956C7.30567 0.764319 7.40448 0.75 7.50988 0.75C7.61528 0.75 7.7141 0.764319 7.80632 0.792956C7.89855 0.822056 7.98419 0.871247 8.06324 0.940531L14.7233 6.77771C14.9078 6.93938 15 7.13845 15 7.37494C15 7.61189 14.9012 7.81697 14.7036 7.99018Z" fill="white"/></svg>
