<svg width="15" height="16" viewBox="0 0 15 16" fill="none" xmlns="http://www.w3.org/2000/svg">
<path d="M2.66667 0C1.95942 0 1.28115 0.280951 0.781048 0.781048C0.280951 1.28115 0 1.95942 0 2.66667V13.3333C0 14.0406 0.280951 14.7189 0.781048 15.219C1.28115 15.719 1.95942 16 2.66667 16C3.37391 16 4.05219 15.719 4.55228 15.219C5.05238 14.7189 5.33333 14.0406 5.33333 13.3333V2.66667C5.33333 1.95942 5.05238 1.28115 4.55228 0.781048C4.05219 0.280951 3.37391 0 2.66667 0ZM12 0C11.2928 0 10.6145 0.280951 10.1144 0.781048C9.61429 1.28115 9.33333 1.95942 9.33333 2.66667V13.3333C9.33333 14.0406 9.61429 14.7189 10.1144 15.219C10.6145 15.719 11.2928 16 12 16C12.7072 16 13.3855 15.719 13.8856 15.219C14.3857 14.7189 14.6667 14.0406 14.6667 13.3333V2.66667C14.6667 1.95942 14.3857 1.28115 13.8856 0.781048C13.3855 0.280951 12.7072 0 12 0Z" fill="black"/>
</svg>
